<?xml version="1.0" encoding="utf-8"?>
<!-- Generator: Adobe Illustrator 24.2.3, SVG Export Plug-In . SVG Version: 6.00 Build 0)  -->
<svg version="1.1" id="Vrstva_1" xmlns="http://www.w3.org/2000/svg" xmlns:xlink="http://www.w3.org/1999/xlink" x="0px" y="0px"
	 viewBox="0 0 841.89 595.28" style="enable-background:new 0 0 841.89 595.28;" xml:space="preserve">
<style type="text/css">
	.st0{fill:#ffffff;}
</style>
<path class="st0" d="M420.94,85.1c-117.38,0-212.54,95.16-212.54,212.54c0,117.38,95.16,212.54,212.54,212.54
	c117.38,0,212.54-95.16,212.54-212.54C633.49,180.25,538.33,85.1,420.94,85.1z M562.28,355.88l-0.35,0.79
	c-3.97,7.94-8.94,17.85-19.4,23.09c-1.1,0.55-2.21,0.97-3.24,1.31c0.52,22.54-7.7,48.12-32.86,54.3
	c-9.18,9.91-20.33,16.36-35.9,20.82l-1.14,0.28c-3.8,0.62-7.59,0.93-11.36,0.93c-13.32,0-25.92-3.9-35.18-11.15
	c-9.15-7.18-14.46-17.12-15.36-28.79l-0.03-0.45c-1.21-36.94-0.79-73.84-0.41-109.5c0.21-18.23,0.41-37.07,0.41-55.92l20.71-0.03
	c0,18.99-0.21,37.9-0.41,56.2c-0.41,36.97-0.79,71.9,0.41,108.32c0.48,5.8,2.93,10.32,7.46,13.88c7.01,5.49,18.64,7.87,29.79,6.14
	c12.01-3.49,19.99-8.18,26.58-15.64c2.28-2.59,5.25-4.31,8.66-5.01c19.78-4.14,18.19-32.79,17.67-38.49l-0.03-0.93
	c0-10.25,9.7-13.15,12.88-14.12c0.69-0.21,1.73-0.52,2.07-0.69c4.21-2.07,6.9-7.32,9.94-13.39c1.97-5.21,2.59-12.05-1.55-16.19
	c-5.14-5.14-8.42-16.74-2.17-23.51c9.46-11.01,2.9-26.34-5.66-36.11l-0.83-1.07c-5.59-8.39-4.63-17.26-3.87-24.4
	c0.69-6.42,0.83-9.46-1.04-11.67c-5.56-6.94-13.12-10.46-19.88-9.32l-1.69,0.14c-7.11,0-13.19-5.63-13.98-12.57
	c-1.24-6.39,0.86-12.05,2.42-16.22l0.55-1.41c0.66-1.86,0.52-3.97-0.38-5.73c-6.52-12.5-21.57-34.24-49.43-39.94
	c-4.69-0.55-10.42,1.21-14.01,4.45c-1.31,1.17-2.28,2.45-2.9,3.87c-1.45,3.18-4.8,5.04-8.28,5.14l-5.11,0.17
	c-7.94,0-7.53-10.74-7.8-12.43c-0.45-2.73-2.04-5.11-4.31-6.63c-2.38-1.55-5.83-3-10.42-3c-11.18,0-22.13,5.66-34.52,17.81
	c-10.91,10.7-25.72,23.96-33.28,32.97c-4.9,5.83-6.87,10.56-5.56,13.36c3.07,6.46,20.06,9.53,50.54,9.01l2.97-0.03l0.21,0.03
	c6.52,0.45,18.81,4.83,18.81,17.98c0,13.95-12.32,18.36-18.85,18.74h-75.32c-1.52,0.1-7.25,1.1-9.77,4
	c-0.97,1.1-1.38,2.42-1.24,4.18l0.04,0.34l-0.04,0.38c-0.14,1.83,0.28,3.21,1.31,4.35c2.66,3,8.77,3.9,10.7,3.97l68.07-0.72
	c2.24-0.28,11.43-1,17.98,4.45c2.66,2.21,5.9,6.39,6.18,13.64c0.14,4.52-1.38,8.49-4.42,11.46c-6.9,6.8-19.33,6.39-20.71,6.35h-49.5
	c-2-0.03-7.7,0.31-10.29,2.87c-0.69,0.62-1.45,1.62-1.45,3.73c0,3.07,0.97,4.35,1.69,5.04c3.28,3.07,11.84,2.62,14.64,2.45
	c9.39-0.48,41.73-0.03,45.19,0c2.24-0.17,12.91-0.62,19.64,5.52c3.45,3.18,5.25,7.52,5.21,12.63c-0.1,14.05-15.74,17.81-24.03,17.81
	l-45.05-0.48c-3.83-0.31-12.84,0.14-16.09,3.35c-0.62,0.62-1.28,1.52-1.14,3.42c0.52,7.35,14.74,8.15,14.91,8.15l52.4-0.07
	c3.93,0,7.53,1.59,10.15,4.18c2.62,2.59,4.28,6.14,4.31,10.08l0.52,60.65c6.11,2.04,10.49,7.8,10.49,14.6
	c0,8.56-6.9,15.46-15.43,15.46c-8.53,0-15.46-6.9-15.46-15.46c0-6.63,4.18-12.25,10.04-14.43l-0.52-60.72c-0.03-2.21-1.86-4-4.11-4
	l-52.61,0.07c-8.98-0.35-24.09-4.45-25.03-17.81c-0.31-4.49,1.14-8.46,4.18-11.46c7.28-7.21,21.57-6.52,23.99-6.35l44.46,0.48
	c0.07,0,13.6-0.31,13.64-7.49c0-2.9-1.04-4.21-1.83-4.94c-3.18-2.9-9.91-3.04-12.01-2.83h-0.55c-0.35,0-35.38-0.52-44.74,0
	c-7.35,0.38-16.53,0.14-22.3-5.32c-3.28-3.07-4.94-7.28-4.94-12.53c0-4.45,1.62-8.32,4.63-11.22c6.28-6.04,16.53-5.76,17.67-5.73
	h49.54c2.62,0.1,10.11-0.28,13.22-3.35c0.66-0.66,1.38-1.66,1.31-3.73c-0.1-2.76-0.9-4.76-2.45-6.04
	c-2.97-2.52-8.39-2.38-10.25-2.14l-0.66,0.07l-68.62,0.72c-1.45-0.03-12.19-0.59-18.3-7.39c-2.83-3.14-4.21-7.15-3.97-11.63
	c-0.24-4.35,1.07-8.28,3.83-11.43c5.8-6.63,16.09-7.42,17.23-7.46l75.11-0.03c1.8-0.14,9.01-1.24,9.01-8.39
	c0-6.46-7.66-7.53-9.01-7.66l-2.45,0.03c-27.34,0.45-53.47-1.07-60.06-14.95c-3.24-6.83-0.9-15.05,6.97-24.44
	c7.73-9.18,22.75-22.68,33.97-33.69c9.08-8.91,23.3-20.78,41.77-20.78c7.25,0,13.26,2.35,17.88,6.97c1.42,1.42,2.59,2.97,3.56,4.56
	c1.07-1.31,2.24-2.55,3.56-3.73c8.25-7.42,20.16-11.05,31.03-9.49l0.55,0.1c27.1,5.42,49.85,23.44,64.07,50.74
	c3.59,6.9,4.14,15.05,1.48,22.37l-0.62,1.62c-0.07,0.17-0.14,0.38-0.21,0.62c11.15,1.04,22.09,7.08,30,16.98
	c7.53,9.04,6.39,19.43,5.59,26.99c-0.55,4.97-0.83,8.25,0.24,10.29c16.57,19.37,19.43,42.6,7.7,59.34
	C565.97,327.96,567.8,342.11,562.28,355.88z"/>
</svg>


