<?xml version="1.0" standalone="no"?>
<!DOCTYPE svg PUBLIC "-//W3C//DTD SVG 20010904//EN"
 "http://www.w3.org/TR/2001/REC-SVG-20010904/DTD/svg10.dtd">
<svg version="1.0" xmlns="http://www.w3.org/2000/svg"
 width="1772.000000pt" height="1772.000000pt" viewBox="0 0 1772.000000 1772.000000"
 preserveAspectRatio="xMidYMid meet">
<metadata>
Created by potrace 1.11, written by Peter Selinger 2001-2013
</metadata>
<g transform="translate(0.000000,1772.000000) scale(0.100000,-0.100000)"
fill="#000000" stroke="none">
<path d="M8607 17714 c-1 -1 -76 -5 -166 -8 -91 -4 -183 -9 -205 -11 -23 -2
-75 -7 -116 -10 -105 -8 -180 -15 -215 -20 -16 -2 -57 -6 -90 -10 -33 -4 -71
-9 -85 -11 -14 -2 -50 -6 -80 -9 -30 -4 -62 -8 -70 -10 -8 -2 -37 -7 -65 -10
-27 -4 -108 -17 -180 -30 -71 -13 -145 -27 -164 -30 -458 -79 -1219 -306
-1676 -500 -473 -200 -894 -414 -1260 -640 -33 -21 -76 -47 -95 -58 -56 -34
-400 -266 -439 -296 -20 -15 -81 -61 -136 -102 -87 -64 -192 -145 -260 -201
-107 -87 -221 -182 -225 -187 -3 -3 -36 -33 -75 -66 -158 -135 -553 -524 -706
-695 -388 -432 -741 -905 -1021 -1370 -240 -397 -463 -840 -617 -1225 -29 -71
-56 -139 -61 -150 -17 -36 -97 -257 -144 -400 -79 -236 -190 -633 -231 -825
-9 -41 -19 -84 -21 -95 -3 -11 -7 -31 -10 -45 -2 -14 -13 -65 -24 -115 -18
-88 -43 -229 -55 -310 -3 -23 -7 -52 -10 -65 -4 -20 -14 -91 -30 -215 -2 -16
-6 -46 -9 -65 -3 -19 -8 -66 -11 -105 -3 -38 -8 -77 -10 -85 -2 -8 -7 -60 -11
-115 -3 -55 -8 -118 -10 -140 -25 -310 -25 -928 1 -1260 3 -33 7 -94 10 -135
3 -41 7 -93 10 -115 24 -222 27 -240 40 -330 2 -11 7 -42 10 -70 15 -115 23
-159 55 -335 32 -172 65 -334 82 -395 5 -22 12 -50 14 -62 8 -44 95 -363 132
-488 102 -337 266 -776 390 -1045 16 -36 40 -87 52 -115 35 -78 214 -433 254
-503 20 -35 36 -66 36 -68 0 -2 18 -33 40 -69 22 -36 40 -67 40 -70 0 -7 136
-230 191 -313 27 -41 49 -76 49 -78 0 -11 252 -372 349 -499 74 -98 260 -332
302 -380 88 -101 259 -295 287 -325 117 -122 346 -351 443 -442 123 -116 117
-110 264 -237 55 -47 102 -88 105 -91 25 -28 424 -336 525 -406 17 -11 70 -48
118 -82 48 -34 92 -62 97 -62 4 0 10 -4 12 -9 2 -5 66 -49 143 -98 292 -186
541 -327 845 -479 546 -272 1078 -471 1700 -638 52 -14 106 -27 120 -30 14 -3
95 -21 180 -41 85 -20 171 -38 190 -41 19 -3 65 -12 101 -19 37 -8 95 -19 130
-25 35 -5 75 -12 89 -14 14 -3 61 -10 105 -16 44 -6 91 -13 105 -15 14 -2 45
-6 70 -10 25 -3 61 -7 80 -10 19 -2 60 -7 90 -10 30 -3 71 -8 90 -10 19 -3 71
-7 115 -10 44 -4 96 -8 115 -10 238 -25 1112 -26 1316 0 16 2 68 6 115 9 47 4
95 8 105 10 10 2 55 7 98 11 43 4 88 9 100 11 11 2 50 6 85 10 36 3 68 7 71 9
3 2 28 6 56 10 60 7 67 8 284 46 96 16 222 41 280 54 58 13 116 26 130 29 14
2 54 12 90 21 36 9 75 18 87 20 91 20 478 132 623 181 216 73 551 199 665 249
17 8 77 35 135 60 174 78 189 85 360 170 545 270 1059 596 1550 981 127 100
418 350 545 469 234 218 560 561 740 779 22 26 45 53 50 59 41 46 192 239 294
377 459 617 834 1292 1124 2025 115 291 260 727 311 940 2 6 8 30 15 55 7 25
14 52 16 60 2 8 10 42 19 75 13 52 56 245 70 317 2 13 9 46 15 73 6 28 12 64
15 80 3 17 7 39 9 50 3 11 8 40 12 65 4 25 9 54 11 65 23 132 55 367 69 510 4
33 8 71 10 85 2 14 6 66 10 115 3 50 8 108 10 130 11 100 19 374 18 625 0 334
-7 530 -28 745 -2 28 -7 80 -10 116 -4 36 -8 79 -10 95 -2 16 -6 58 -10 94 -3
36 -10 90 -15 120 -5 30 -12 78 -15 105 -3 28 -7 61 -10 75 -3 14 -7 39 -9 55
-103 664 -320 1420 -581 2030 -81 190 -123 282 -216 470 -348 709 -770 1339
-1306 1952 -143 162 -494 521 -638 652 -38 35 -90 83 -115 105 -40 37 -153
133 -291 248 -85 70 -300 237 -349 270 -14 10 -59 42 -100 72 -482 352 -1121
710 -1710 959 -361 152 -877 328 -1200 407 -33 9 -221 54 -265 65 -26 6 -402
82 -437 89 -14 2 -62 10 -105 16 -43 7 -85 14 -95 15 -9 2 -38 6 -65 10 -26 4
-58 8 -69 10 -12 2 -48 6 -80 10 -33 4 -69 8 -82 10 -13 2 -53 7 -90 10 -37 3
-80 8 -97 10 -76 9 -230 21 -430 31 -120 6 -673 12 -678 8z m1343 -1838 c75
-7 84 -9 187 -32 40 -9 74 -15 75 -13 2 1 13 -3 24 -9 12 -6 36 -14 54 -17 35
-6 291 -89 325 -105 11 -5 60 -25 108 -45 519 -210 1023 -586 1440 -1075 189
-222 475 -660 577 -885 128 -281 137 -604 26 -898 -14 -37 -22 -68 -18 -71 4
-2 32 -7 63 -10 207 -24 482 -126 684 -255 232 -147 471 -381 593 -582 40 -67
106 -220 117 -274 34 -167 38 -202 38 -355 0 -91 -2 -192 -6 -225 -13 -132
-19 -193 -26 -254 -10 -86 -6 -240 8 -274 6 -16 37 -61 69 -100 307 -383 485
-775 549 -1212 9 -63 10 -393 1 -460 -30 -225 -120 -476 -235 -658 -24 -37
-43 -70 -43 -73 0 -4 24 -39 53 -78 64 -88 68 -94 113 -181 34 -64 81 -178 89
-215 2 -8 9 -31 15 -50 42 -139 58 -420 34 -595 -37 -269 -102 -443 -287 -770
-203 -358 -447 -588 -759 -713 l-28 -12 -1 -117 c0 -65 -2 -134 -3 -153 -10
-121 -19 -218 -22 -235 -2 -11 -7 -42 -10 -70 -4 -41 -34 -197 -49 -265 -12
-49 -68 -235 -88 -290 -178 -482 -485 -835 -892 -1025 -33 -15 -116 -46 -184
-68 l-124 -41 -81 -81 c-317 -320 -727 -561 -1241 -729 -200 -65 -262 -78
-460 -93 -458 -36 -906 38 -1295 213 -47 21 -97 46 -112 56 -14 10 -29 18 -32
18 -4 0 -43 23 -88 51 -179 110 -354 268 -476 427 -34 45 -62 84 -62 87 0 2
-14 24 -30 49 -96 142 -207 450 -226 626 -2 25 -7 60 -9 78 -5 33 -13 256 -20
552 -24 1016 -24 2486 0 4380 4 252 13 1485 15 1955 l0 70 430 1 431 2 -6
-877 c-3 -482 -8 -1015 -10 -1186 -24 -2055 -24 -3363 0 -4295 15 -573 19
-619 77 -757 133 -322 506 -541 1003 -589 144 -14 354 -9 474 12 38 6 260 78
306 99 17 7 55 23 85 35 87 34 245 118 339 180 145 96 230 169 406 351 107
110 182 152 355 199 178 48 283 105 393 216 104 104 195 264 251 439 29 93 71
296 83 405 7 68 9 360 4 580 -6 276 156 461 503 578 231 78 298 149 498 532
64 122 94 255 92 405 -2 145 -37 240 -124 335 -88 97 -166 234 -195 346 -8 30
-16 58 -18 62 -9 15 -19 120 -19 189 2 142 45 265 130 369 143 176 198 321
201 532 3 221 -66 448 -215 702 -30 51 -131 192 -164 230 -12 14 -34 41 -49
60 -14 19 -32 41 -39 49 -7 7 -35 59 -62 115 -44 90 -78 191 -95 281 -20 105
-25 347 -11 480 4 39 9 88 11 110 2 22 7 65 11 95 11 101 13 234 3 285 -12 65
-24 88 -79 155 -133 162 -296 275 -490 340 -70 24 -252 35 -340 21 -51 -7
-190 9 -235 29 -16 7 -44 19 -61 26 -52 23 -147 98 -197 156 -26 30 -47 58
-47 63 0 4 -10 21 -22 38 -13 18 -22 33 -20 35 1 1 -4 18 -12 37 -28 65 -45
184 -46 310 -2 134 31 277 119 515 60 163 48 220 -104 470 -28 47 -57 96 -65
110 -8 14 -17 27 -20 30 -3 3 -18 25 -34 50 -67 105 -228 309 -326 413 -285
305 -585 527 -930 686 -136 63 -372 145 -480 166 -8 2 -34 8 -58 14 -55 15
-161 16 -243 1 -230 -40 -419 -167 -506 -338 -38 -76 -102 -138 -176 -172 -79
-37 -93 -39 -262 -46 -191 -7 -232 3 -306 76 -55 53 -92 124 -105 200 -3 14
-7 32 -9 40 -5 16 -11 68 -20 168 -11 121 -68 221 -168 295 -51 39 -168 91
-247 113 -71 19 -279 25 -385 11 -178 -23 -370 -89 -555 -189 -68 -37 -268
-164 -280 -178 -3 -4 -30 -25 -60 -47 -109 -80 -175 -139 -433 -387 -195 -186
-211 -202 -432 -410 -265 -251 -758 -744 -845 -848 -139 -164 -212 -275 -253
-378 -32 -84 -40 -141 -25 -199 31 -125 259 -254 543 -305 17 -3 41 -8 55 -11
32 -8 123 -22 178 -29 23 -4 61 -9 85 -12 55 -8 92 -11 207 -19 52 -4 103 -9
113 -11 43 -8 477 -17 757 -16 175 1 337 -3 380 -9 139 -20 294 -80 409 -158
140 -95 257 -264 286 -416 3 -16 8 -41 11 -55 7 -34 6 -175 -2 -230 -18 -132
-86 -281 -174 -382 -96 -110 -309 -230 -450 -254 -14 -3 -49 -9 -79 -14 -33
-6 -673 -10 -1655 -10 l-1602 0 -91 -25 c-51 -13 -100 -29 -110 -34 -10 -5
-35 -17 -56 -27 -57 -28 -112 -78 -135 -124 -26 -53 -31 -226 -8 -282 38 -89
168 -170 330 -204 114 -24 59 -24 1496 -9 256 2 701 8 990 12 741 10 781 10
880 -11 259 -54 445 -187 545 -391 60 -120 76 -186 82 -335 5 -109 2 -136 -16
-205 -72 -261 -269 -424 -616 -509 -150 -36 -193 -38 -1450 -40 -632 -2 -1168
-6 -1190 -10 -165 -28 -279 -95 -308 -182 -25 -72 -11 -192 29 -255 63 -101
222 -146 494 -141 290 5 2178 4 2250 -2 364 -29 632 -187 749 -440 47 -102 64
-199 58 -331 -6 -134 -7 -138 -36 -215 -86 -230 -341 -412 -666 -476 -133 -26
-173 -28 -540 -27 -332 0 -1323 11 -1678 17 -298 5 -519 -46 -619 -142 -52
-49 -63 -107 -39 -194 39 -138 226 -238 531 -284 19 -2 547 -4 1172 -4 799 1
1156 -2 1200 -10 206 -37 384 -189 456 -390 39 -106 35 4 47 -1390 4 -421 7
-892 8 -1047 l2 -282 42 -16 c54 -21 147 -82 199 -131 202 -191 253 -495 126
-753 -49 -101 -167 -221 -269 -274 -246 -128 -532 -91 -742 98 -89 80 -170
231 -191 358 -11 60 -9 202 3 247 15 58 23 81 43 124 61 132 170 246 294 307
l68 34 -4 340 c-1 187 -6 680 -9 1095 -11 1212 -9 1131 -28 1166 -22 43 -71
82 -110 89 -18 4 -558 7 -1202 8 -643 2 -1183 6 -1200 10 -16 4 -66 15 -110
23 -176 35 -350 108 -475 199 -126 92 -205 197 -254 335 -26 73 -30 101 -32
200 -3 133 9 192 62 296 36 73 107 156 181 213 98 74 281 146 450 175 187 33
163 32 1028 22 857 -11 1372 -12 1430 -4 215 31 371 111 420 214 27 58 22 172
-12 238 -29 56 -114 114 -206 141 -52 15 -68 18 -164 31 -43 6 -1774 9 -2183
4 -341 -4 -509 28 -698 135 -40 22 -147 118 -179 161 -153 202 -181 526 -66
749 32 62 50 86 116 154 102 105 271 189 445 221 31 5 68 13 82 17 14 3 556 7
1205 8 649 2 1207 5 1240 9 122 12 204 31 280 66 120 54 157 108 157 224 0
103 -36 195 -97 249 -37 33 -111 66 -181 81 -53 11 -116 13 -264 10 -107 -3
-393 -7 -635 -9 -242 -2 -696 -7 -1010 -10 -1229 -13 -1278 -13 -1366 1 -268
43 -450 125 -594 269 -143 142 -193 276 -193 515 1 150 17 228 68 333 103 206
324 353 635 422 96 22 242 23 2105 25 l1245 1 74 25 c155 52 233 140 250 279
19 164 -69 283 -253 340 -76 23 -84 24 -509 25 -238 1 -457 3 -487 5 -30 2
-113 6 -184 10 -71 4 -136 8 -145 10 -9 1 -52 6 -96 9 -44 4 -87 9 -95 11 -8
2 -40 6 -71 10 -31 3 -67 8 -80 10 -13 3 -41 7 -64 11 -22 3 -87 16 -145 29
-441 97 -709 256 -834 494 -124 237 -84 512 119 826 111 171 250 329 566 645
146 145 454 444 588 568 25 24 135 130 244 235 291 281 329 317 470 435 133
111 164 134 306 228 194 129 410 233 611 293 82 25 79 24 195 46 140 25 167
28 310 30 116 1 224 -9 300 -29 6 -1 25 -6 44 -10 180 -42 414 -207 523 -368
50 -73 43 -73 114 2 122 129 270 237 438 320 94 46 287 116 345 126 14 3 32 7
40 10 8 2 30 7 50 10 20 2 45 6 56 9 11 2 56 7 100 11 44 4 81 7 82 8 4 3 133
-3 193 -8z"/>
</g>
</svg>
